<?xml version="1.0" ?><svg viewBox="0 0 22.622 22.623" fill="#ffffff" xmlns="http://www.w3.org/2000/svg"><g data-name="Layer 2" id="Layer_2"><g data-name="Layer 1" id="Layer_1-2"><path d="M21.365,2.743H19.423V.343A.344.344,0,0,0,19.08,0H3.542A.344.344,0,0,0,3.2.343v2.4H1.257A1.258,1.258,0,0,0,0,4V18.624a1.259,1.259,0,0,0,1.257,1.257h5.6v2.056h-2.4a.343.343,0,1,0,0,.686h13.71a.343.343,0,0,0,0-.686h-2.4V19.881h5.6a1.259,1.259,0,0,0,1.257-1.257V4A1.258,1.258,0,0,0,21.365,2.743ZM3.884.686H18.737V16.453H3.884ZM.686,4a.572.572,0,0,1,.571-.571H3.2V16.453H.686Zm14.4,17.938H7.541V19.881h7.54Zm6.855-3.313a.571.571,0,0,1-.571.571H1.257a.571.571,0,0,1-.571-.571V17.138h21.25Zm0-2.171H19.423V3.428h1.942A.572.572,0,0,1,21.936,4ZM13.353,1.93a.34.34,0,1,1,.243.585A.346.346,0,0,1,13.353,1.93Zm2.07-.1a.343.343,0,0,1,0,.685A.343.343,0,0,1,15.423,1.83Zm2.071.584c-.307.32-.8-.176-.485-.484S17.812,2.1,17.494,2.414Zm-.7,1.928h-4.57a.343.343,0,1,1,0-.685H16.8A.343.343,0,0,1,16.8,4.342Zm0,2.56h-4.57a.343.343,0,1,1,0-.686H16.8A.343.343,0,0,1,16.8,6.9Zm-4.57,2.559a.343.343,0,1,1,0-.686h3.2a.343.343,0,0,1,0,.686ZM16.8,12.02H10.36a.343.343,0,0,1,0-.686H16.8A.343.343,0,0,1,16.8,12.02ZM5.827,11.334H8.532a.343.343,0,0,1,0,.686h-2.7A.343.343,0,0,1,5.827,11.334Zm9.6,3.245H12.8a.343.343,0,0,1,0-.685h2.628A.343.343,0,0,1,15.424,14.579Zm-4.456,0H5.827a.343.343,0,0,1,0-.685h5.141A.343.343,0,0,1,10.968,14.579ZM5.827,9.461H10.4a.344.344,0,0,0,.343-.344V4a.343.343,0,0,0-.343-.342H5.827A.342.342,0,0,0,5.484,4V9.117A.343.343,0,0,0,5.827,9.461ZM6.17,4.342h3.884V8.775H6.17Z" id="publishing"/></g></g></svg>